<?xml version="1.0" encoding="utf-8"?>
<!-- Svg Vector Icons : http://www.onlinewebfonts.com/icon -->
<!DOCTYPE svg PUBLIC "-//W3C//DTD SVG 1.1//EN" "http://www.w3.org/Graphics/SVG/1.1/DTD/svg11.dtd">
<svg version="1.1" xmlns="http://www.w3.org/2000/svg" xmlns:xlink="http://www.w3.org/1999/xlink" x="0px" y="0px" viewBox="0 0 1000 1000" enable-background="new 0 0 1000 1000" xml:space="preserve">
<metadata> Svg Vector Icons : http://www.onlinewebfonts.com/icon </metadata>
<g><path d="M981.1,713.2c-10.8-11.4-282.9-283.1-295.3-295.5c-12.4-12.3-30.6,12-47-3.4c-16.4-15.3-96.4-92.5-127.9-129.2c-30.3-35.3-59.1-7.1-59.1-7.1s0,0-0.1,0.1c-21-21.3-124.5-126-197.3-198.7c-99.3-99.3-219-37.5-233-30.4c-14,7.2-16.1,90.2,0,106.5C35.8,170.3,249.9,387.8,292,430.5c-1.1,1.1-2,2.1-2.7,2.9c-19.2,21.1,0,40.3,0,40.3s115.5,120.5,134.6,140.4c19.1,19.9-9.7,34.9,5.4,52.4c15.1,17.5,290.2,293,298.4,301.3c8.2,8.3,34.1,14.2,47,0c13-14.2,193.4-194.5,206.3-207.4C994,747.5,991.9,724.6,981.1,713.2z M229,126.6C255.8,148.8,410,306.8,410,306.8l-28.1,28.1l-225.3-221C156.6,113.9,187.5,92,229,126.6z M914.4,747.6C903,758.9,784.6,887.2,773.2,899.7c-11.4,12.4-51.8,4.9-59-2.3c-7.2-7.3-234.3-234.8-247.6-250.1c-13.2-15.3,9.5-30.5-7.2-47.9C442.8,582,335.7,478.4,335.7,478.4s-17.3-24.5,9-51.6c17.4-17.9,100.4-101,100.4-101s32.4-30.9,58.9,0.1c27.5,32.1,122.5,113.2,136.9,126.6c14.4,13.4,34.1-6.2,44.8,4.6c10.8,10.8,223.5,225.8,233,235.8C928.2,702.9,925.7,736.3,914.4,747.6z"/></g>
</svg>